<svg xmlns="http://www.w3.org/2000/svg" viewBox="0 0 336 96" width="336" height="96">
  <style>
    .ink { fill: none; stroke: #24292f; }
    .word { fill: #24292f; }
    @media (prefers-color-scheme: dark) {
      .ink { stroke: #e6edf3; }
      .word { fill: #e6edf3; }
    }
  </style>
  <!-- array brackets -->
  <path class="ink" d="M32 16 H18 V80 H32" stroke-width="8" stroke-linecap="round" stroke-linejoin="round"/>
  <path class="ink" d="M64 16 H78 V80 H64" stroke-width="8" stroke-linecap="round" stroke-linejoin="round"/>
  <!-- back tag -->
  <g transform="translate(48 48) scale(0.88) translate(-48 -48)">
  <g transform="translate(27 30) rotate(-18)">
    <path fill="#fb7185" fill-rule="evenodd" d="M12 0 H34 Q40 0 40 6 V20 Q40 26 34 26 H12 L2 15.6 Q0 13 2 10.4 Z
      M12 13 m-3.2 0 a3.2 3.2 0 1 0 6.4 0 a3.2 3.2 0 1 0 -6.4 0"/>
  </g>
  <!-- front tag -->
  <g transform="translate(23 48) rotate(-18)">
    <path fill="#e11d48" fill-rule="evenodd" d="M12 0 H34 Q40 0 40 6 V20 Q40 26 34 26 H12 L2 15.6 Q0 13 2 10.4 Z
      M12 13 m-3.2 0 a3.2 3.2 0 1 0 6.4 0 a3.2 3.2 0 1 0 -6.4 0"/>
  </g>
  </g>
  <!-- wordmark -->
  <text class="word" x="104" y="63" font-family="'Inter','SF Pro Display','Segoe UI','Helvetica Neue',Arial,sans-serif"
        font-size="46" font-weight="700" letter-spacing="-1">Metka</text>
</svg>
